<svg width="24" height="24" viewBox="0 0 24 24" fill="none" xmlns="http://www.w3.org/2000/svg">
<path d="M15.2838 15.3487C15.8077 15.5233 16.374 15.2402 16.5487 14.7162C16.7233 14.1923 16.4402 13.626 15.9162 13.4513L15.2838 15.3487ZM12 13.2H11C11 13.6304 11.2754 14.0126 11.6838 14.1487L12 13.2ZM13 8.18225C13 7.62997 12.5523 7.18225 12 7.18225C11.4477 7.18225 11 7.62997 11 8.18225H13ZM15.9162 13.4513L12.3162 12.2513L11.6838 14.1487L15.2838 15.3487L15.9162 13.4513ZM13 13.2V8.18225H11V13.2H13ZM20.6 12C20.6 16.7496 16.7496 20.6 12 20.6V22.6C17.8542 22.6 22.6 17.8542 22.6 12H20.6ZM12 20.6C7.25035 20.6 3.4 16.7496 3.4 12H1.4C1.4 17.8542 6.14578 22.6 12 22.6V20.6ZM3.4 12C3.4 7.25034 7.25035 3.39999 12 3.39999V1.39999C6.14578 1.39999 1.4 6.14577 1.4 12H3.4ZM12 3.39999C16.7496 3.39999 20.6 7.25034 20.6 12H22.6C22.6 6.14577 17.8542 1.39999 12 1.39999V3.39999Z" fill="black"/>
</svg>
