<svg width="25" height="25" viewBox="0 0 40 40" fill="none" xmlns="http://www.w3.org/2000/svg">
<path d="M16.75 16C16.75 15.0335 15.9665 14.25 15 14.25C14.0335 14.25 13.25 15.0335 13.25 16H16.75ZM13.25 36C13.25 36.9665 14.0335 37.75 15 37.75C15.9665 37.75 16.75 36.9665 16.75 36H13.25ZM10 5.75H30V2.25H10V5.75ZM34.25 10V30H37.75V10H34.25ZM30 34.25H10V37.75H30V34.25ZM5.75 30V10H2.25V30H5.75ZM10 34.25C7.65279 34.25 5.75 32.3472 5.75 30H2.25C2.25 34.2802 5.71979 37.75 10 37.75V34.25ZM34.25 30C34.25 32.3472 32.3472 34.25 30 34.25V37.75C34.2802 37.75 37.75 34.2802 37.75 30H34.25ZM30 5.75C32.3472 5.75 34.25 7.65279 34.25 10H37.75C37.75 5.71979 34.2802 2.25 30 2.25V5.75ZM10 2.25C5.71979 2.25 2.25 5.71979 2.25 10H5.75C5.75 7.65279 7.65279 5.75 10 5.75V2.25ZM13.25 16V36H16.75V16H13.25ZM5 16.75H35V13.25H5V16.75Z" fill="#E6E6E6"/>
</svg>
