<svg width="25" height="25" viewBox="0 0 40 40" fill="none" xmlns="http://www.w3.org/2000/svg">
<path d="M34.9 18L32 15.102V8C32 6.9 31.1 6 30 6H28C26.9 6 26 6.9 26 8V9.106L22 5.11C21.454 4.594 20.954 4 20 4C19.046 4 18.546 4.594 18 5.11L5.1 18C4.476 18.65 4 19.124 4 20C4 21.126 4.864 22 6 22H8V34C8 35.1 8.9 36 10 36H14C15.1046 36 16 35.1046 16 34V26C16 24.9 16.9 24 18 24H22C23.1 24 24 24.9 24 26V34C24 35.1046 23.8954 36 25 36H30C31.1 36 32 35.1 32 34V22H34C35.136 22 36 21.126 36 20C36 19.124 35.524 18.65 34.9 18Z" stroke="#E6E6E6" stroke-width="3.5" stroke-linejoin="round"/>
</svg>
