<svg width="399" height="236" viewBox="0 0 399 236" fill="none" xmlns="http://www.w3.org/2000/svg">
<path d="M11.7262 188L0.826172 151.45H7.47617L13.2762 170.75C13.8262 172.75 14.3762 174.8 14.9262 178C15.5262 174.75 16.0762 172.85 16.7262 170.75L22.4762 151.45H29.5262L35.1762 170.75C35.7762 172.8 36.3262 174.9 36.9262 178C37.6262 174.6 38.1262 172.65 38.6762 170.8L44.5762 151.45H51.0762L39.9762 188H33.7762L25.9762 161.4L18.0262 188H11.7262ZM58.623 188.65C53.373 188.65 50.173 185.6 50.173 180.95C50.173 176.4 53.473 173.55 59.323 173.1L66.723 172.55V172C66.723 168.65 64.723 167.3 61.623 167.3C58.023 167.3 56.023 168.8 56.023 171.4H50.823C50.823 166.05 55.223 162.55 61.923 162.55C68.573 162.55 72.673 166.15 72.673 173V188H67.323L66.873 184.35C65.823 186.9 62.473 188.65 58.623 188.65ZM60.623 184.05C64.373 184.05 66.773 181.8 66.773 178V176.7L61.623 177.1C57.823 177.45 56.373 178.7 56.373 180.7C56.373 182.95 57.873 184.05 60.623 184.05ZM76.7656 180.5H82.5656C82.6156 182.65 84.2156 184 87.0156 184C89.8656 184 91.4156 182.85 91.4156 181.05C91.4156 179.8 90.7656 178.9 88.5656 178.4L84.1156 177.35C79.6656 176.35 77.5156 174.25 77.5156 170.3C77.5156 165.45 81.6156 162.55 87.3156 162.55C92.8656 162.55 96.6156 165.75 96.6656 170.55H90.8656C90.8156 168.45 89.4156 167.1 87.0656 167.1C84.6656 167.1 83.2656 168.2 83.2656 170.05C83.2656 171.45 84.3656 172.35 86.4656 172.85L90.9156 173.9C95.0656 174.85 97.1656 176.75 97.1656 180.55C97.1656 185.55 92.9156 188.65 86.8156 188.65C80.6656 188.65 76.7656 185.35 76.7656 180.5ZM107.91 188H101.81V150.8H107.96V166.5C109.51 164.1 112.41 162.55 115.96 162.55C122.06 162.55 125.26 166.4 125.26 172.8V188H119.16V174.25C119.16 170.1 117.11 168.1 114.01 168.1C110.16 168.1 107.91 170.8 107.91 174.5V188ZM138.354 188H132.154V151.45H138.354L150.154 180.55L161.954 151.45H168.254V188H162.054V176.75C162.054 169.4 162.054 167.25 162.404 164.65L153.104 188H147.204L137.954 164.7C138.304 166.9 138.354 170.35 138.354 174.9V188ZM182.793 188.65C177.543 188.65 174.343 185.6 174.343 180.95C174.343 176.4 177.643 173.55 183.493 173.1L190.893 172.55V172C190.893 168.65 188.893 167.3 185.793 167.3C182.193 167.3 180.193 168.8 180.193 171.4H174.993C174.993 166.05 179.393 162.55 186.093 162.55C192.743 162.55 196.843 166.15 196.843 173V188H191.493L191.043 184.35C189.993 186.9 186.643 188.65 182.793 188.65ZM184.793 184.05C188.543 184.05 190.943 181.8 190.943 178V176.7L185.793 177.1C181.993 177.45 180.543 178.7 180.543 180.7C180.543 182.95 182.043 184.05 184.793 184.05ZM210.894 188H204.794V168.4H200.044V163.3H204.794V155.6H210.894V163.3H215.694V168.4H210.894V188ZM230.292 188.65C222.942 188.65 217.792 183.3 217.792 175.65C217.792 167.9 222.842 162.55 230.092 162.55C237.492 162.55 242.192 167.5 242.192 175.2V177.05L223.592 177.1C224.042 181.45 226.342 183.65 230.392 183.65C233.742 183.65 235.942 182.35 236.642 180H242.292C241.242 185.4 236.742 188.65 230.292 188.65ZM230.142 167.55C226.542 167.55 224.342 169.5 223.742 173.2H236.142C236.142 169.8 233.792 167.55 230.142 167.55Z" fill="black"/>
<path d="M17.0481 76.52V135H6.80813V76.52H17.0481ZM40.0913 135H30.0113V76.52H40.1713L67.6112 117.96V76.52H77.6913V135H67.6112L40.0913 93.56V135ZM100.716 135H90.6363V76.52H100.796L128.236 117.96V76.52H138.316V135H128.236L100.716 93.56V135ZM204.621 105.72C204.621 123.48 192.941 135.96 176.141 135.96C159.421 135.96 147.901 123.56 147.901 105.72C147.901 87.96 159.501 75.48 176.221 75.48C192.941 75.48 204.621 87.88 204.621 105.72ZM193.821 105.72C193.821 93.24 186.941 85.32 176.221 85.32C165.501 85.32 158.621 93.24 158.621 105.72C158.621 118.2 165.501 126.12 176.221 126.12C186.941 126.12 193.821 118.04 193.821 105.72Z" fill="black"/>
<g clip-path="url(#clip0_5_42)">
<path d="M347.357 152.562C344.392 158.268 339.225 162.016 333.857 165.346C328.758 168.507 322.033 172.098 316.08 173.387C312.947 174.065 312.195 174.218 309.33 175.573L302.338 179.016C297.988 181.088 293.578 182.876 288.96 184.26C278.789 187.308 269.973 186.36 261.742 178.763C258.631 175.892 256.397 171.958 255.107 167.934C253.487 162.881 252.879 159.89 249.639 155.182C248.213 153.11 246.163 151.652 244.31 149.998L240.566 146.355C239.693 145.474 238.897 144.502 238.089 143.561L235.468 140.327C235.158 139.953 234.822 139.614 234.535 139.218L225.403 125.631C224.31 123.997 223.419 122.284 222.435 120.583L210.256 99.7119L207.024 94.8692C205.081 91.9611 203.638 88.9042 206.28 85.6758L206.352 85.59C206.663 85.2141 206.985 84.9165 207.359 84.6059L248.665 58.0714C252.322 56.2356 254.508 59.2315 256.219 61.7767L265.18 75.2985C265.662 76.1132 265.951 77.0053 266.435 77.8245C267.662 79.9002 268.81 81.7968 269.982 83.9169L281.134 104.525L286.799 113.732C287.742 115.14 288.645 116.667 289.728 117.969C294.877 124.159 303.249 128.272 311.355 127.568C314.663 127.281 317.829 126.387 321.031 125.57L324.809 124.734C331.007 123.383 335.724 123.749 341.062 127.084L341.803 127.586C348.008 131.902 350.765 140.389 349.103 147.63C348.713 149.331 348.05 150.966 347.357 152.562ZM210.798 88.9791C210.407 89.5498 210.878 89.9348 211.206 90.4299L218.215 100.889L225.028 97.2675L225.353 97.0574C225.111 96.5394 224.75 96.0697 224.433 95.5948L217.38 85.0862L214.473 86.7254C213.255 87.368 211.84 88.0603 210.798 88.9791ZM250.374 63.4241L243.911 68.2763C244.536 69.346 245.272 70.3656 245.963 71.3945L250.937 78.8316C251.246 79.2956 251.477 80.1653 252.084 79.7503L258.441 74.9193L250.987 63.7959C250.841 63.5878 250.783 63.3807 250.529 63.3125L250.374 63.4241ZM222.085 82.6009L229.487 93.7263C230.31 94.9282 230.162 94.5341 231.355 93.9176C233.326 92.8984 235.182 91.5858 237.019 90.34L228.916 78.266C226.546 79.4261 224.27 81.1167 222.085 82.6009ZM233.087 75.6984C233.829 77.0068 240.693 87.4009 241.056 87.626L247.935 82.9235L239.975 71.0594L235.342 74.1563C234.609 74.649 233.753 75.1265 233.087 75.6984ZM220.162 105.927L225.792 115.637C228.546 114.636 231.617 112.844 234.206 111.462L241.57 107.333C242.245 106.944 242.962 106.652 243.623 106.246L255.26 98.4285L259.676 95.054C261.121 94.0411 262.496 92.8716 263.94 91.7916L266.857 89.4342C266.855 89.1248 266.643 88.875 266.49 88.626L261.311 79.632C260.627 80.1004 260.019 80.6226 259.364 81.1242L255.792 83.8966C254.644 84.8221 253.354 85.5865 252.164 86.4601C251.314 87.0846 250.554 87.8366 249.696 88.4655L238.166 96.2128L231.693 100.051L222.96 104.543C222.02 105.019 221.135 105.514 220.162 105.927ZM228.45 120.574C230.092 123.422 232.122 126.125 233.952 128.861L236.246 132.289C237.817 134.63 237.176 134.409 239.734 133.401L248.279 129.616C249.985 128.833 251.724 128.114 253.387 127.234L256.198 125.758C260.624 123.348 264.982 120.722 268.985 117.65L271.153 115.819C272.629 114.592 274.163 113.272 275.411 111.813L277.65 109.164L269.504 94.3383C268.307 95.1583 267.231 96.0842 266.108 96.9973L258.183 102.995L243.405 112.665C242.674 113.107 241.892 113.46 241.146 113.879L235.853 116.834C233.412 118.109 230.832 119.198 228.45 120.574ZM241.226 138.68C241.98 139.734 242.833 140.694 243.699 141.658L245.725 143.741C246.182 144.226 246.518 144.716 247.08 145.095C251.779 143.578 256.511 141.604 260.915 139.369L265.02 137.176L275.104 130.392C278.475 127.8 282.001 124.35 284.668 121.099L284.946 120.78C284.857 120.404 281.24 115.281 280.727 114.349L273.254 121.226C271.622 122.601 269.922 123.754 268.145 124.943L263.22 128.192C262.639 128.54 262.016 128.784 261.429 129.114L251.033 134.468L244.396 137.4C243.357 137.834 242.299 138.348 241.226 138.68ZM251.798 149.26L253.254 151.166L269.928 146.826C270.612 146.71 271.434 146.707 272.053 146.393L275.204 144.951C279.559 142.762 285.35 138.733 288.49 135.031L293.315 129.186L293.816 128.47C292.79 127.794 291.75 127.139 290.768 126.397C290.124 125.91 289.463 125.203 288.772 124.815L279.206 134.13C278.805 134.576 278.25 134.922 277.759 135.261L268.269 141.596C267.801 141.875 267.309 142.059 266.838 142.317L257.924 146.843L253.751 148.545C253.186 148.758 252.289 148.949 251.798 149.26ZM256.386 155.978C257.489 158.102 258.695 160.394 259.273 162.726C266.809 161.141 275.17 161.184 281.831 165.566L284.117 167.222C286.296 168.762 289.074 172.317 289.96 174.787L291.252 177.779C292.364 177.886 291.804 175.592 291.756 174.994C291.146 164.522 286.045 155.679 275.929 152.316C273.582 151.536 273.015 151.883 270.675 152.308C266.584 153.051 262.582 154.084 258.589 155.236L256.995 155.713C256.817 155.769 256.515 155.841 256.386 155.978ZM298.712 131.037L295.265 135.68C290.455 141.589 286.688 144.104 280.578 148.192L280.7 148.193C281.267 148.223 285.448 151.002 285.96 151.405C291.518 155.778 295.447 162.764 296.697 169.652L297.429 175.227L301.174 173.55C304.133 172.081 307.068 170.463 310.159 169.286C311.967 168.597 313.893 168.237 315.766 167.769C317.825 167.194 319.958 166.52 321.903 165.633L325 164.065C325.544 163.785 326.113 163.555 326.648 163.257L333.039 159.379C332.105 158.54 331.047 157.838 330.094 157.01C323.672 151.425 320.236 142.747 320.616 134.312L320.813 131.273C314.531 132.71 310.377 133.829 303.88 132.453L300.871 131.689C300.176 131.477 299.425 131.152 298.712 131.037ZM260.898 167.996C261.469 169.454 263.674 173.407 265.004 174.387L267.703 176.634C272.216 179.664 277.278 181.149 282.755 180.213L285.779 179.509C285.783 179.358 285.779 179.3 285.741 179.163C285.366 178.15 284.99 177.119 284.478 176.166C280.032 167.884 269.365 165.997 260.898 167.996ZM326.653 129.924C325.854 134.444 325.821 139.212 327.389 143.589C328.765 147.43 331.444 151.523 334.814 153.867L336.737 155.277C337.043 155.529 337.437 155.697 337.77 155.922C339.32 154.638 340.739 153.057 341.828 151.36C347.26 142.804 342.867 130.742 332.461 129.382C330.682 129.149 328.802 129.417 327.07 129.824L326.653 129.924Z" fill="black"/>
</g>
<defs>
<clipPath id="clip0_5_42">
<rect width="170" height="170" fill="white" transform="translate(163 94.7443) rotate(-33.8706)"/>
</clipPath>
</defs>
</svg>
