<svg width="403" height="171" viewBox="0 0 403 171" fill="none" xmlns="http://www.w3.org/2000/svg">
<path fill-rule="evenodd" clip-rule="evenodd" d="M380.862 57.3502C379.48 62.069 376.156 65.6443 372.619 68.9346C369.26 72.0597 364.744 75.7465 360.468 77.5922L360.372 77.6338C358.202 78.5706 357.647 78.8098 355.726 80.2291L350.988 83.8445C348.03 86.0408 344.985 88.0335 341.725 89.7535C334.543 93.5423 327.788 94.1319 320.491 89.647C317.733 87.9521 315.476 85.33 313.914 82.5006C313.618 81.9651 313.347 81.4614 313.088 80.9816C311.631 78.2784 310.583 76.3336 307.928 73.7397C306.884 72.7194 305.622 72.0176 304.36 71.3155L304.359 71.315C303.959 71.0924 303.558 70.8699 303.165 70.6371L299.818 68.4556C299.191 68.0305 298.591 67.5541 297.995 67.0805L297.995 67.0803C297.845 66.9616 297.696 66.8431 297.547 66.7256L295.103 64.6857C294.998 64.5997 294.89 64.5177 294.783 64.4359C294.598 64.2942 294.413 64.1528 294.239 63.9912L285.382 55.1447C284.628 54.3882 283.944 53.5865 283.257 52.7801C282.977 52.4515 282.696 52.1221 282.409 51.7947L270.191 37.9326L267.051 34.7759C265.164 32.8808 263.63 30.8001 265.136 27.9878L265.177 27.9128C265.355 27.5847 265.552 27.314 265.787 27.0257L292.864 1.01912C295.337 -0.898171 297.419 1.02712 299.079 2.68426L307.798 11.5073C308.038 11.7771 308.246 12.0684 308.453 12.3601C308.662 12.6525 308.87 12.9454 309.113 13.2174C309.357 13.4918 309.599 13.7613 309.838 14.0283C310.797 15.1002 311.719 16.13 312.674 17.2651L324.083 31.082L329.692 37.1541C329.936 37.3978 330.178 37.6483 330.422 37.9001L330.422 37.9007C331.095 38.5959 331.778 39.3008 332.516 39.9006C337.293 43.7848 344.182 45.635 350.159 43.9108C352.313 43.2897 354.313 42.3306 356.321 41.3672L356.322 41.3671C356.589 41.2389 356.856 41.1106 357.124 40.983L359.836 39.7982C364.287 37.8699 367.881 37.4484 372.378 39.1624L373.008 39.4302C378.301 41.7523 381.622 47.7131 381.444 53.3919C381.403 54.7255 381.147 56.0502 380.862 57.3502ZM269.013 29.7994C268.842 30.1962 269.084 30.4152 269.353 30.6581C269.413 30.7127 269.475 30.7685 269.533 30.8279L276.336 37.6409L280.913 33.918L281.126 33.7123C280.929 33.4423 280.684 33.2037 280.441 32.9679C280.367 32.8955 280.293 32.8234 280.22 32.7507L273.378 25.9069L271.438 27.5659C271.347 27.6395 271.254 27.7139 271.16 27.7892L271.16 27.7893C270.409 28.3914 269.588 29.05 269.013 29.7994ZM294.936 4.78316L290.803 9.37783C291.264 9.90019 291.766 10.3933 292.266 10.8841C292.445 11.0609 292.625 11.2373 292.802 11.4147L297.632 16.2607C297.698 16.3264 297.763 16.407 297.829 16.4888C298.068 16.7837 298.32 17.0946 298.629 16.7807L302.686 12.2175L295.451 4.97158C295.417 4.9395 295.388 4.90672 295.359 4.87521C295.268 4.77459 295.188 4.68697 295.036 4.67651L294.936 4.78316ZM276.541 23.3477L283.737 30.6026C284.356 31.2108 284.39 31.1787 284.755 30.8327C284.859 30.7347 284.989 30.6115 285.166 30.4706C286.326 29.5495 287.386 28.4737 288.431 27.4135L288.431 27.413L288.437 27.4068C288.588 27.2541 288.738 27.1017 288.888 26.9502L281.026 19.0867C279.73 20.0709 278.531 21.305 277.37 22.4992C277.092 22.7856 276.815 23.0698 276.541 23.3477ZM283.777 16.5446C284.527 17.4168 291.211 24.2026 291.517 24.3178L295.984 19.7741L288.261 12.047L285.241 15.0547C285.096 15.1998 284.943 15.3456 284.787 15.493C284.431 15.8309 284.066 16.1774 283.777 16.5446ZM278.541 41.1333L284.198 47.588C285.748 46.6539 287.375 45.3022 288.86 44.0695C289.214 43.7751 289.56 43.4876 289.895 43.2141L294.811 39.0286C295.015 38.8514 295.228 38.6876 295.44 38.5241C295.697 38.3268 295.953 38.1297 296.192 37.9096L303.769 30.3267L306.584 27.1427C307.141 26.5637 307.67 25.9468 308.202 25.3265L308.202 25.3261C308.564 24.9038 308.928 24.48 309.302 24.0655L311.143 21.8661C311.105 21.6791 310.97 21.5413 310.84 21.4087L310.839 21.408C310.808 21.3765 310.777 21.3453 310.749 21.3138L305.534 15.33C305.242 15.6283 304.977 15.9392 304.711 16.2521L304.711 16.2529C304.573 16.4143 304.436 16.5761 304.294 16.737L302.023 19.3444C301.594 19.8557 301.119 20.3321 300.645 20.808L300.645 20.8082C300.318 21.1363 299.991 21.4643 299.68 21.8033C299.408 22.0984 299.159 22.4137 298.909 22.7297L298.908 22.73C298.655 23.0502 298.401 23.3712 298.123 23.6724L290.616 31.1873L286.326 35.0229L280.436 39.6825C280.264 39.8166 280.096 39.9511 279.928 40.0849L279.928 40.0853C279.475 40.4463 279.029 40.8026 278.541 41.1333ZM290.574 54.6406L290.574 54.6411C291.146 55.1952 291.717 55.748 292.273 56.3061L294.5 58.5394C294.706 58.7452 294.874 58.9219 295.017 59.0709C295.403 59.4762 295.594 59.676 295.802 59.6967C296.005 59.7168 296.224 59.5677 296.657 59.2739C296.828 59.1577 297.032 59.019 297.281 58.8592L303.134 54.7579C303.466 54.5185 303.801 54.2827 304.136 54.0468L304.14 54.0442C304.979 53.4538 305.817 52.8631 306.615 52.2165L308.507 50.6942C311.472 48.233 314.354 45.6194 316.904 42.7229L318.261 41.0294C319.187 39.891 320.144 38.6741 320.865 37.3948L322.153 35.077L313.852 25.1552C313.23 25.7899 312.675 26.4644 312.115 27.1453L312.115 27.1456C311.976 27.314 311.838 27.4828 311.697 27.6515L306.636 33.3218L296.975 42.7581C296.695 43.0127 296.398 43.2475 296.101 43.4822L296.101 43.4825L296.101 43.4827C295.885 43.6534 295.669 43.8241 295.459 44.0025L291.924 47.0016C291.27 47.5257 290.595 48.0309 289.92 48.5365L289.92 48.5368C288.898 49.3015 287.875 50.0671 286.922 50.9001C288.057 52.2016 289.319 53.4245 290.574 54.6406ZM299.18 62.6001C299.901 63.2798 300.683 63.8741 301.476 64.4694L303.303 65.7331C303.42 65.8162 303.529 65.9011 303.636 65.9847C303.912 66.1989 304.176 66.4044 304.52 66.5492C307.822 64.7169 311.08 62.5377 314.056 60.2107L316.812 57.9593L323.377 51.3803C325.523 48.9381 327.66 45.8291 329.181 42.9964L329.342 42.7154C329.276 42.5702 328.232 41.5366 327.204 40.5189L327.204 40.518C326.33 39.6529 325.468 38.7993 325.228 38.5128L320.635 44.7758C319.614 46.0486 318.508 47.1644 317.351 48.3195L314.135 51.4838C313.926 51.6725 313.702 51.84 313.479 52.0074C313.292 52.1476 313.106 52.2877 312.927 52.4404L305.917 57.9917L301.37 61.1712C301.174 61.3022 300.979 61.4379 300.782 61.5742C300.259 61.9369 299.73 62.304 299.18 62.6001ZM308.674 68.9782L310.048 70.193L321.918 64.4756C322.057 64.4228 322.206 64.3752 322.356 64.3268C322.744 64.2022 323.148 64.0725 323.449 63.8371L325.601 62.2896C328.545 60.0046 332.296 56.1267 334.105 52.8851L336.863 47.7876L337.133 47.1761C336.97 47.1097 336.808 47.0439 336.645 46.9781C335.936 46.6919 335.228 46.4057 334.54 46.0711C334.333 45.9703 334.12 45.8469 333.904 45.7219C333.541 45.5116 333.17 45.297 332.809 45.1788L327.006 53.58C326.807 53.9133 326.514 54.2096 326.235 54.4913C326.185 54.542 326.136 54.5922 326.087 54.6421L319.902 60.7959C319.729 60.9515 319.545 61.0862 319.362 61.2206L319.362 61.2207C319.218 61.3266 319.073 61.4324 318.935 61.5483L312.914 66.2598L310.034 68.1531C309.903 68.2347 309.743 68.32 309.576 68.4089L309.575 68.4091C309.245 68.585 308.888 68.7749 308.674 68.9782ZM313.109 73.3411L313.197 73.452C314.313 74.8518 315.513 76.3568 316.271 77.9784C321.692 75.6764 327.971 74.4749 333.616 76.779L335.575 77.6847C337.438 78.5183 340.047 80.7758 341.076 82.4983L342.488 84.5522C343.199 84.4824 342.784 83.3236 342.556 82.6883C342.512 82.5644 342.475 82.4604 342.454 82.3883C340.451 74.6214 335.319 68.7391 327.232 67.7092C325.651 67.5078 325.136 67.7204 324 68.19C323.788 68.2776 323.554 68.3742 323.288 68.4787C320.329 69.6399 317.478 71.0056 314.652 72.4595L313.526 73.0525C313.507 73.0631 313.485 73.0743 313.463 73.0862L313.462 73.0864C313.338 73.152 313.173 73.2383 313.109 73.3411ZM341.185 48.3796L339.284 52.3723C336.551 57.5085 334.1 59.9523 330.128 63.9111L330.111 63.9282L330.203 63.9111C330.632 63.85 334.18 65.3182 334.624 65.5449C339.44 68.0057 343.419 72.667 345.373 77.6511L346.746 81.7259L349.308 79.9148C349.781 79.5515 350.251 79.1822 350.723 78.8124C352.248 77.6153 353.781 76.4126 355.42 75.3893C356.357 74.8041 357.371 74.3467 358.38 73.891L358.381 73.8906C358.723 73.7362 359.065 73.582 359.403 73.423C360.863 72.6881 362.364 71.8672 363.692 70.9146L365.785 69.2815C365.94 69.1586 366.1 69.0418 366.26 68.9249L366.26 68.9247L366.26 68.9244C366.478 68.7651 366.696 68.6058 366.903 68.4312L371.125 64.5787C370.689 64.3187 370.233 64.0927 369.776 63.8664L369.776 63.8662C369.368 63.6644 368.96 63.4623 368.566 63.2357C362.923 59.9931 359.064 53.9889 358.103 47.6035L357.803 45.2948C357.562 45.4023 357.325 45.5082 357.092 45.6124C352.979 47.4515 350.078 48.7488 345.272 48.6791L342.902 48.5505C342.725 48.5323 342.541 48.5063 342.356 48.4799C341.963 48.4241 341.56 48.367 341.185 48.3796ZM318.268 81.6926C318.912 82.702 321.15 85.3425 322.292 85.8817L324.649 87.1693C328.482 88.7772 332.5 89.1439 336.471 87.6333L338.636 86.6582C338.617 86.5447 338.606 86.5015 338.557 86.4042L338.504 86.3182C338.09 85.6415 337.67 84.9558 337.167 84.3419C332.608 78.7843 324.326 78.9426 318.268 81.6926ZM361.986 43.4204C362.054 46.9299 362.733 50.5118 364.555 53.5646C366.155 56.2434 368.769 58.9191 371.644 60.1803L373.294 60.9545C373.452 61.0399 373.629 61.0985 373.806 61.157C373.928 61.1972 374.049 61.2375 374.164 61.2865C375.138 60.094 375.969 58.6986 376.536 57.2641C379.349 50.0426 374.273 41.6403 366.264 42.1561C364.895 42.2443 363.524 42.7229 362.284 43.2834L361.986 43.4204ZM13.31 22.1567V95.2567H0.51001V22.1567H13.31ZM42.1139 95.2567H29.5139V22.1567H42.2139L76.5139 73.9567V22.1567H89.1139V95.2567H76.5139L42.1139 43.4567V95.2567ZM117.895 95.2567H105.295V22.1567H117.995L152.295 73.9567V22.1567H164.895V95.2567H152.295L117.895 43.4567V95.2567ZM247.776 58.6567C247.776 80.8567 233.176 96.4567 212.176 96.4567C191.276 96.4567 176.876 80.9567 176.876 58.6567C176.876 36.4567 191.376 20.8567 212.276 20.8567C233.176 20.8567 247.776 36.3567 247.776 58.6567ZM234.276 58.6567C234.276 43.0567 225.676 33.1567 212.276 33.1567C198.876 33.1567 190.276 43.0567 190.276 58.6567C190.276 74.2567 198.876 84.1567 212.276 84.1567C225.676 84.1567 234.276 74.0567 234.276 58.6567ZM64.3565 118.087L79.6165 169.257H88.4365L99.5665 132.017L110.486 169.257H119.166L134.706 118.087H125.606L117.346 145.177C116.576 147.767 115.876 150.497 114.896 155.257C114.056 150.917 113.286 147.977 112.446 145.107L104.536 118.087H94.6665L86.6165 145.107C85.7065 148.047 84.9365 150.707 84.0965 155.257C83.3265 150.777 82.5565 147.907 81.7865 145.107L73.6665 118.087H64.3565ZM133.442 159.387C133.442 165.897 137.922 170.167 145.272 170.167C150.662 170.167 155.352 167.717 156.822 164.147L157.452 169.257H164.942V148.257C164.942 138.667 159.202 133.627 149.892 133.627C140.512 133.627 134.352 138.527 134.352 146.017H141.632C141.632 142.377 144.432 140.277 149.472 140.277C153.812 140.277 156.612 142.167 156.612 146.857V147.627L146.252 148.397C138.062 149.027 133.442 153.017 133.442 159.387ZM156.682 155.257C156.682 160.577 153.322 163.727 148.072 163.727C144.222 163.727 142.122 162.187 142.122 159.037C142.122 156.237 144.152 154.487 149.472 153.997L156.682 153.437V155.257ZM178.792 158.757H170.672C170.672 165.547 176.132 170.167 184.742 170.167C193.282 170.167 199.232 165.827 199.232 158.827C199.232 153.507 196.292 150.847 190.482 149.517L184.252 148.047C181.312 147.347 179.772 146.087 179.772 144.127C179.772 141.537 181.732 139.997 185.092 139.997C188.382 139.997 190.342 141.887 190.412 144.827H198.532C198.462 138.107 193.212 133.627 185.442 133.627C177.462 133.627 171.722 137.687 171.722 144.477C171.722 150.007 174.732 152.947 180.962 154.347L187.192 155.817C190.272 156.517 191.182 157.777 191.182 159.527C191.182 162.047 189.012 163.657 185.022 163.657C181.102 163.657 178.862 161.767 178.792 158.757ZM205.734 169.257H214.274V150.357C214.274 145.177 217.424 141.397 222.814 141.397C227.154 141.397 230.024 144.197 230.024 150.007V169.257H238.564V147.977C238.564 139.017 234.084 133.627 225.544 133.627C220.574 133.627 216.514 135.797 214.344 139.157V117.177H205.734V169.257ZM248.215 169.257H256.895V150.917C256.895 144.547 256.825 139.717 256.335 136.637L269.285 169.257H277.545L290.565 136.567C290.075 140.207 290.075 143.217 290.075 153.507V169.257H298.755V118.087H289.935L273.415 158.827L256.895 118.087H248.215V169.257ZM307.28 159.387C307.28 165.897 311.76 170.167 319.11 170.167C324.5 170.167 329.19 167.717 330.66 164.147L331.29 169.257H338.78V148.257C338.78 138.667 333.04 133.627 323.73 133.627C314.35 133.627 308.19 138.527 308.19 146.017H315.47C315.47 142.377 318.27 140.277 323.31 140.277C327.65 140.277 330.45 142.167 330.45 146.857V147.627L320.09 148.397C311.9 149.027 307.28 153.017 307.28 159.387ZM330.52 155.257C330.52 160.577 327.16 163.727 321.91 163.727C318.06 163.727 315.96 162.187 315.96 159.037C315.96 156.237 317.99 154.487 323.31 153.997L330.52 153.437V155.257ZM349.911 169.257H358.451V141.817H365.171V134.677H358.451V123.897H349.911V134.677H343.261V141.817H349.911V169.257ZM368.108 151.967C368.108 162.677 375.318 170.167 385.608 170.167C394.638 170.167 400.938 165.617 402.408 158.057H394.498C393.518 161.347 390.438 163.167 385.748 163.167C380.078 163.167 376.858 160.087 376.228 153.997L402.268 153.927V151.337C402.268 140.557 395.688 133.627 385.328 133.627C375.178 133.627 368.108 141.117 368.108 151.967ZM376.438 148.537C377.278 143.357 380.358 140.627 385.398 140.627C390.508 140.627 393.798 143.777 393.798 148.537H376.438Z" fill="black"/>
</svg>
