<svg width="426" height="241" viewBox="0 0 426 241" fill="none" xmlns="http://www.w3.org/2000/svg">
<g filter="url(#filter0_d_276_35)">
<path d="M87.6166 220L72.3566 168.83H81.6666L89.7866 195.85C90.5566 198.65 91.3266 201.52 92.0966 206C92.9366 201.45 93.7066 198.79 94.6166 195.85L102.667 168.83H112.537L120.447 195.85C121.287 198.72 122.057 201.66 122.897 206C123.877 201.24 124.577 198.51 125.347 195.92L133.607 168.83H142.707L127.167 220H118.487L107.567 182.76L96.4366 220H87.6166ZM153.272 220.91C145.922 220.91 141.442 216.64 141.442 210.13C141.442 203.76 146.062 199.77 154.252 199.14L164.612 198.37V197.6C164.612 192.91 161.812 191.02 157.472 191.02C152.432 191.02 149.632 193.12 149.632 196.76H142.352C142.352 189.27 148.512 184.37 157.892 184.37C167.202 184.37 172.942 189.41 172.942 199V220H165.452L164.822 214.89C163.352 218.46 158.662 220.91 153.272 220.91ZM156.072 214.47C161.322 214.47 164.682 211.32 164.682 206V204.18L157.472 204.74C152.152 205.23 150.122 206.98 150.122 209.78C150.122 212.93 152.222 214.47 156.072 214.47ZM178.672 209.5H186.792C186.862 212.51 189.102 214.4 193.022 214.4C197.012 214.4 199.182 212.79 199.182 210.27C199.182 208.52 198.272 207.26 195.192 206.56L188.962 205.09C182.732 203.69 179.722 200.75 179.722 195.22C179.722 188.43 185.462 184.37 193.442 184.37C201.212 184.37 206.462 188.85 206.532 195.57H198.412C198.342 192.63 196.382 190.74 193.092 190.74C189.732 190.74 187.772 192.28 187.772 194.87C187.772 196.83 189.312 198.09 192.252 198.79L198.482 200.26C204.292 201.59 207.232 204.25 207.232 209.57C207.232 216.57 201.282 220.91 192.742 220.91C184.132 220.91 178.672 216.29 178.672 209.5ZM222.274 220H213.734V167.92H222.344V189.9C224.514 186.54 228.574 184.37 233.544 184.37C242.084 184.37 246.564 189.76 246.564 198.72V220H238.024V200.75C238.024 194.94 235.154 192.14 230.814 192.14C225.424 192.14 222.274 195.92 222.274 201.1V220ZM264.895 220H256.215V168.83H264.895L281.415 209.57L297.935 168.83H306.755V220H298.075V204.25C298.075 193.96 298.075 190.95 298.565 187.31L285.545 220H277.285L264.335 187.38C264.825 190.46 264.895 195.29 264.895 201.66V220ZM327.11 220.91C319.76 220.91 315.28 216.64 315.28 210.13C315.28 203.76 319.9 199.77 328.09 199.14L338.45 198.37V197.6C338.45 192.91 335.65 191.02 331.31 191.02C326.27 191.02 323.47 193.12 323.47 196.76H316.19C316.19 189.27 322.35 184.37 331.73 184.37C341.04 184.37 346.78 189.41 346.78 199V220H339.29L338.66 214.89C337.19 218.46 332.5 220.91 327.11 220.91ZM329.91 214.47C335.16 214.47 338.52 211.32 338.52 206V204.18L331.31 204.74C325.99 205.23 323.96 206.98 323.96 209.78C323.96 212.93 326.06 214.47 329.91 214.47ZM366.451 220H357.911V192.56H351.261V185.42H357.911V174.64H366.451V185.42H373.171V192.56H366.451V220ZM393.609 220.91C383.319 220.91 376.109 213.42 376.109 202.71C376.109 191.86 383.179 184.37 393.329 184.37C403.689 184.37 410.269 191.3 410.269 202.08V204.67L384.229 204.74C384.859 210.83 388.079 213.91 393.749 213.91C398.439 213.91 401.519 212.09 402.499 208.8H410.409C408.939 216.36 402.639 220.91 393.609 220.91ZM393.399 191.37C388.359 191.37 385.279 194.1 384.439 199.28H401.799C401.799 194.52 398.509 191.37 393.399 191.37Z" fill="#F4F4F4"/>
</g>
<g filter="url(#filter1_d_276_35)">
<path d="M21.3102 72.9V146H8.51016V72.9H21.3102ZM50.1141 146H37.5141V72.9H50.2141L84.5141 124.7V72.9H97.1141V146H84.5141L50.1141 94.2V146ZM125.895 146H113.295V72.9H125.995L160.295 124.7V72.9H172.895V146H160.295L125.895 94.2V146ZM255.777 109.4C255.777 131.6 241.177 147.2 220.177 147.2C199.277 147.2 184.877 131.7 184.877 109.4C184.877 87.2 199.377 71.6 220.277 71.6C241.177 71.6 255.777 87.1 255.777 109.4ZM242.277 109.4C242.277 93.8 233.677 83.9 220.277 83.9C206.877 83.9 198.277 93.8 198.277 109.4C198.277 125 206.877 134.9 220.277 134.9C233.677 134.9 242.277 124.8 242.277 109.4Z" fill="#F4F4F4"/>
</g>
<g clip-path="url(#clip0_276_35)" filter="url(#filter2_d_276_35)">
<path d="M388.862 108.093C387.48 112.812 384.156 116.388 380.619 119.678C377.26 122.803 372.744 126.49 368.468 128.335C366.217 129.307 365.675 129.532 363.726 130.972L358.988 134.588C356.03 136.784 352.985 138.777 349.724 140.497C342.543 144.286 335.788 144.875 328.491 140.39C325.733 138.695 323.476 136.073 321.913 133.244C319.952 129.692 319.054 127.537 315.928 124.483C314.553 123.139 312.799 122.348 311.165 121.38L307.818 119.199C307.033 118.667 306.292 118.055 305.547 117.469L303.102 115.429C302.815 115.194 302.513 114.989 302.239 114.734L293.382 105.888C292.32 104.823 291.399 103.669 290.409 102.538L278.19 88.6759L275.051 85.5192C273.163 83.6241 271.629 81.5434 273.135 78.7311L273.177 78.6561C273.355 78.328 273.552 78.0573 273.787 77.769L300.863 51.7624C303.337 49.8451 305.419 51.7704 307.079 53.4276L315.798 62.2506C316.279 62.7909 316.628 63.4174 317.113 63.9606C318.34 65.337 319.481 66.5906 320.673 68.0083L332.082 81.8253L337.692 87.8974C338.608 88.8143 339.51 89.8266 340.515 90.6439C345.293 94.5281 352.181 96.3783 358.159 94.6541C360.599 93.9504 362.842 92.8125 365.124 91.7263L367.836 90.5415C372.287 88.6132 375.881 88.1917 380.378 89.9057L381.008 90.1735C386.301 92.4956 389.622 98.4564 389.444 104.135C389.403 105.469 389.147 106.793 388.862 108.093ZM277.013 80.5427C276.804 81.0287 277.214 81.2481 277.533 81.5712L284.336 88.3842L288.913 84.6613L289.126 84.4556C288.869 84.1027 288.529 83.8035 288.22 83.494L281.377 76.6502L279.438 78.3092C278.618 78.9713 277.659 79.6995 277.013 80.5427ZM302.936 55.5264L298.803 60.1211C299.429 60.8316 300.132 61.4879 300.802 62.158L305.632 67.004C305.933 67.3065 306.235 67.925 306.629 67.524L310.685 62.9608L303.451 55.7149C303.31 55.5803 303.236 55.4335 303.036 55.4198L302.936 55.5264ZM284.54 74.0909L291.737 81.3459C292.531 82.1264 292.362 81.8525 293.166 81.2139C294.495 80.1582 295.693 78.8994 296.888 77.6935L289.026 69.83C287.419 71.0503 285.961 72.6548 284.54 74.0909ZM291.777 67.2879C292.526 68.1601 299.211 74.9459 299.517 75.0611L303.984 70.5174L296.26 62.7903L293.241 65.798C292.764 66.2757 292.192 66.7605 291.777 67.2879ZM286.541 91.8766L292.198 98.3313C294.117 97.1742 296.157 95.3762 297.895 93.9574L302.811 89.7719C303.26 89.3808 303.755 89.0554 304.191 88.6529L311.768 81.07L314.584 77.886C315.519 76.9128 316.378 75.8324 317.302 74.8088L319.143 72.6094C319.095 72.3776 318.899 72.2215 318.748 72.0571L313.534 66.0733C313.09 66.5256 312.712 67.0071 312.294 67.4803L310.023 70.0877C309.298 70.9516 308.443 71.7156 307.679 72.5466C307.133 73.1407 306.674 73.8171 306.123 74.4157L298.616 81.9306L294.325 85.7662L288.436 90.4258C287.801 90.9214 287.21 91.4232 286.541 91.8766ZM294.921 101.643C296.574 103.538 298.496 105.266 300.273 107.049L302.5 109.283C304.024 110.808 303.511 110.736 305.281 109.602L311.134 105.501C312.299 104.662 313.497 103.866 314.615 102.96L316.507 101.437C319.471 98.9763 322.354 96.3626 324.904 93.4661L326.261 91.7726C327.187 90.6343 328.143 89.4174 328.864 88.1381L330.153 85.8203L321.852 75.8985C321.076 76.6903 320.405 77.5439 319.697 78.3948L314.636 84.065L304.975 93.5014C304.492 93.9413 303.957 94.3217 303.459 94.7458L299.924 97.7449C298.281 99.0617 296.505 100.26 294.921 101.643ZM307.18 113.343C307.901 114.023 308.683 114.617 309.475 115.213L311.303 116.476C311.718 116.773 312.042 117.091 312.52 117.292C315.822 115.46 319.08 113.281 322.055 110.954L324.812 108.703L331.376 102.124C333.523 99.6814 335.66 96.5723 337.18 93.7397L337.342 93.4587C337.22 93.19 333.75 89.8797 333.227 89.2561L328.635 95.5191C327.613 96.7919 326.508 97.9077 325.35 99.0628L322.135 102.227C321.75 102.574 321.319 102.849 320.927 103.184L313.917 108.735L309.369 111.914C308.654 112.394 307.936 112.936 307.18 113.343ZM316.674 119.721L318.048 120.936L329.918 115.219C330.414 115.03 331.031 114.907 331.449 114.58L333.6 113.033C336.545 110.748 340.295 106.87 342.105 103.628L344.862 98.5309L345.133 97.9194C344.263 97.5642 343.386 97.226 342.54 96.8144C341.984 96.544 341.384 96.1105 340.808 95.9221L335.006 104.323C334.771 104.717 334.405 105.058 334.087 105.385L327.902 111.539C327.592 111.818 327.25 112.029 326.934 112.292L320.914 117.003L318.034 118.896C317.642 119.14 316.996 119.415 316.674 119.721ZM321.109 124.084C322.249 125.516 323.493 127.057 324.27 128.722C329.691 126.42 335.971 125.218 341.616 127.522L343.575 128.428C345.438 129.262 348.047 131.519 349.076 133.242L350.487 135.295C351.337 135.212 350.579 133.573 350.454 133.132C348.451 125.365 343.318 119.482 335.231 118.452C333.355 118.214 332.981 118.558 331.288 119.222C328.328 120.383 325.478 121.749 322.652 123.203L321.526 123.796C321.401 123.864 321.185 123.963 321.109 124.084ZM349.185 99.1229L347.284 103.116C344.547 108.259 342.092 110.703 338.111 114.671L338.203 114.654C338.632 114.593 342.18 116.061 342.623 116.288C347.439 118.749 351.418 123.41 353.373 128.394L354.745 132.469L357.307 130.658C359.311 129.119 361.275 127.472 363.42 126.133C364.675 125.349 366.067 124.794 367.403 124.166C368.863 123.431 370.364 122.611 371.692 121.658L373.785 120.025C374.152 119.734 374.545 119.477 374.902 119.174L379.125 115.322C378.3 114.83 377.403 114.46 376.566 113.979C370.923 110.736 367.064 104.732 366.103 98.3468L365.803 96.0381C361.301 98.0435 358.35 99.4961 353.272 99.4223L350.901 99.2938C350.349 99.2369 349.737 99.1043 349.185 99.1229ZM326.267 132.436C326.911 133.445 329.15 136.086 330.292 136.625L332.649 137.913C336.482 139.52 340.5 139.887 344.471 138.377L346.636 137.401C346.617 137.288 346.605 137.245 346.557 137.147C346.125 136.443 345.692 135.725 345.167 135.085C340.608 129.528 332.326 129.686 326.267 132.436ZM369.986 94.1637C370.053 97.6732 370.733 101.255 372.555 104.308C374.155 106.987 376.768 109.662 379.643 110.924L381.294 111.698C381.561 111.842 381.881 111.91 382.164 112.03C383.138 110.837 383.969 109.442 384.536 108.007C387.348 100.786 382.272 92.3836 374.263 92.8994C372.895 92.9876 371.523 93.4661 370.284 94.0267L369.986 94.1637Z" fill="white"/>
</g>
<defs>
<filter id="filter0_d_276_35" x="68.3567" y="167.92" width="346.052" height="60.99" filterUnits="userSpaceOnUse" color-interpolation-filters="sRGB">
<feFlood flood-opacity="0" result="BackgroundImageFix"/>
<feColorMatrix in="SourceAlpha" type="matrix" values="0 0 0 0 0 0 0 0 0 0 0 0 0 0 0 0 0 0 127 0" result="hardAlpha"/>
<feOffset dy="4"/>
<feGaussianBlur stdDeviation="2"/>
<feComposite in2="hardAlpha" operator="out"/>
<feColorMatrix type="matrix" values="0 0 0 0 0 0 0 0 0 0 0 0 0 0 0 0 0 0 0.25 0"/>
<feBlend mode="normal" in2="BackgroundImageFix" result="effect1_dropShadow_276_35"/>
<feBlend mode="normal" in="SourceGraphic" in2="effect1_dropShadow_276_35" result="shape"/>
</filter>
<filter id="filter1_d_276_35" x="4.51013" y="71.6" width="255.266" height="83.6" filterUnits="userSpaceOnUse" color-interpolation-filters="sRGB">
<feFlood flood-opacity="0" result="BackgroundImageFix"/>
<feColorMatrix in="SourceAlpha" type="matrix" values="0 0 0 0 0 0 0 0 0 0 0 0 0 0 0 0 0 0 127 0" result="hardAlpha"/>
<feOffset dy="4"/>
<feGaussianBlur stdDeviation="2"/>
<feComposite in2="hardAlpha" operator="out"/>
<feColorMatrix type="matrix" values="0 0 0 0 0 0 0 0 0 0 0 0 0 0 0 0 0 0 0.25 0"/>
<feBlend mode="normal" in2="BackgroundImageFix" result="effect1_dropShadow_276_35"/>
<feBlend mode="normal" in="SourceGraphic" in2="effect1_dropShadow_276_35" result="shape"/>
</filter>
<filter id="filter2_d_276_35" x="238" y="0" width="191.848" height="191.848" filterUnits="userSpaceOnUse" color-interpolation-filters="sRGB">
<feFlood flood-opacity="0" result="BackgroundImageFix"/>
<feColorMatrix in="SourceAlpha" type="matrix" values="0 0 0 0 0 0 0 0 0 0 0 0 0 0 0 0 0 0 127 0" result="hardAlpha"/>
<feOffset dy="4"/>
<feGaussianBlur stdDeviation="2"/>
<feComposite in2="hardAlpha" operator="out"/>
<feColorMatrix type="matrix" values="0 0 0 0 0 0 0 0 0 0 0 0 0 0 0 0 0 0 0.25 0"/>
<feBlend mode="normal" in2="BackgroundImageFix" result="effect1_dropShadow_276_35"/>
<feBlend mode="normal" in="SourceGraphic" in2="effect1_dropShadow_276_35" result="shape"/>
</filter>
<clipPath id="clip0_276_35">
<rect width="130" height="130" fill="white" transform="translate(242 91.9238) rotate(-45)"/>
</clipPath>
</defs>
</svg>
