<svg width="50" height="50" viewBox="0 0 50 50" fill="none" xmlns="http://www.w3.org/2000/svg">
<path d="M6.49744 35.1387L5.0697 34.1267H5.0697L6.49744 35.1387ZM9.22317 26.8556L7.47328 26.8356L7.47317 26.8456V26.8556H9.22317ZM9.28038 21.8476L11.0303 21.8676L11.0304 21.8576V21.8476H9.28038ZM43.5171 35.1789L44.9645 34.1951L44.9645 34.1951L43.5171 35.1789ZM40.894 26.8556L39.1441 26.8346L39.144 26.8451V26.8556H40.894ZM40.9512 22.0957L42.701 22.1168L42.7012 22.1063V22.0957H40.9512ZM18.75 43.2499C17.7835 43.2499 17 44.0334 17 44.9999C17 45.9663 17.7835 46.7499 18.75 46.7499V43.2499ZM31.25 46.7499C32.2165 46.7499 33 45.9663 33 44.9999C33 44.0334 32.2165 43.2499 31.25 43.2499V46.7499ZM7.92518 36.1506C9.45979 33.9855 10.9732 30.7686 10.9732 26.8556H7.47317C7.47317 29.8549 6.30909 32.3781 5.0697 34.1267L7.92518 36.1506ZM10.9731 26.8756L11.0303 21.8676L7.53049 21.8276L7.47328 26.8356L10.9731 26.8756ZM44.9645 34.1951C43.7763 32.4471 42.644 29.8985 42.644 26.8556H39.144C39.144 30.7725 40.5967 33.9953 42.0698 36.1626L44.9645 34.1951ZM42.6438 26.8766L42.701 22.1168L39.2013 22.0747L39.1441 26.8346L42.6438 26.8766ZM42.7012 22.0957C42.7012 11.8038 34.8883 3.25014 25 3.25014V6.75014C32.7309 6.75014 39.2012 13.5044 39.2012 22.0957H42.7012ZM42.5625 39.2498C44.0357 39.2498 44.9097 38.1533 45.2477 37.3024C45.5926 36.4339 45.6571 35.2142 44.9645 34.1951L42.0698 36.1626C42.0056 36.0682 42.0005 35.9982 42.0001 35.9911C41.9998 35.9857 41.9998 35.9979 41.9949 36.0104C41.9886 36.0262 42.0005 35.9818 42.0776 35.9169C42.1677 35.8411 42.3389 35.7498 42.5625 35.7498V39.2498ZM11.0304 21.8476C11.0304 13.3933 17.397 6.75014 25 6.75014V3.25014C15.2396 3.25014 7.53038 11.6927 7.53038 21.8476H11.0304ZM7.43977 35.7498C7.66874 35.7498 7.84194 35.8449 7.93058 35.9209C8.00583 35.9854 8.0149 36.0272 8.00692 36.0064C8.00029 35.9892 8.00011 35.9731 7.9999 35.9763C7.99959 35.9811 7.99398 36.0535 7.92518 36.1506L5.0697 34.1267C4.34547 35.1485 4.40354 36.3889 4.74086 37.2646C5.07051 38.1203 5.9429 39.2498 7.43977 39.2498V35.7498ZM42.5625 35.7498H7.43977V39.2498H42.5625V35.7498ZM18.75 46.7499H31.25V43.2499H18.75V46.7499Z" fill="white"/>
</svg>
