<svg width="200" height="200" viewBox="0 0 200 200" fill="none" xmlns="http://www.w3.org/2000/svg">
<path d="M76 76V68.5C71.8579 68.5 68.5 71.8579 68.5 76H76ZM76.7969 76H84.2969C84.2969 71.8579 80.939 68.5 76.7969 68.5V76ZM124 76V68.5C119.858 68.5 116.5 71.8579 116.5 76H124ZM124.708 76H132.208C132.208 71.8579 128.851 68.5 124.708 68.5V76ZM76.7969 76.6406V84.1406C80.939 84.1406 84.2969 80.7827 84.2969 76.6406H76.7969ZM76 76.6406H68.5C68.5 80.7827 71.8579 84.1406 76 84.1406V76.6406ZM124.708 76.6406V84.1406C128.851 84.1406 132.208 80.7827 132.208 76.6406H124.708ZM124 76.6406H116.5C116.5 80.7827 119.858 84.1406 124 84.1406V76.6406ZM78.6434 120.379C76.4632 116.857 71.8408 115.769 68.3188 117.949C64.7968 120.129 63.709 124.752 65.8891 128.274L78.6434 120.379ZM134.111 128.274C136.291 124.752 135.203 120.129 131.681 117.949C128.159 115.769 123.537 116.857 121.357 120.379L134.111 128.274ZM172.5 100C172.5 140.041 140.041 172.5 100 172.5V187.5C148.325 187.5 187.5 148.325 187.5 100H172.5ZM100 172.5C59.9593 172.5 27.5 140.041 27.5 100H12.5C12.5 148.325 51.6751 187.5 100 187.5V172.5ZM27.5 100C27.5 59.9593 59.9593 27.5 100 27.5V12.5C51.6751 12.5 12.5 51.6751 12.5 100H27.5ZM100 27.5C140.041 27.5 172.5 59.9593 172.5 100H187.5C187.5 51.6751 148.325 12.5 100 12.5V27.5ZM76 83.5H76.7969V68.5H76V83.5ZM124 83.5H124.708V68.5H124V83.5ZM69.2969 76V76.6406H84.2969V76H69.2969ZM76.7969 69.1406H76V84.1406H76.7969V69.1406ZM83.5 76.6406V76H68.5V76.6406H83.5ZM117.208 76V76.6406H132.208V76H117.208ZM124.708 69.1406H124V84.1406H124.708V69.1406ZM131.5 76.6406V76H116.5V76.6406H131.5ZM100 132.5C91.1107 132.5 83.2026 127.744 78.6434 120.379L65.8891 128.274C72.9956 139.754 85.5701 147.5 100 147.5V132.5ZM121.357 120.379C116.797 127.744 108.889 132.5 100 132.5V147.5C114.43 147.5 127.004 139.754 134.111 128.274L121.357 120.379Z" fill="#E0E0E0"/>
</svg>
